<?xml version="1.0" encoding="iso-8859-1"?>
<!-- Generator: Adobe Illustrator 19.0.0, SVG Export Plug-In . SVG Version: 6.00 Build 0)  -->
<svg version="1.1" id="Capa_1" xmlns="http://www.w3.org/2000/svg" xmlns:xlink="http://www.w3.org/1999/xlink" x="0px" y="0px"
	 viewBox="0 0 496.485 496.485" style="enable-background:new 0 0 496.485 496.485;" xml:space="preserve">
<circle style="fill:#E1E6E9;" cx="248.242" cy="248.242" r="248.242"/>
<path style="fill:#FFFFFF;" d="M239.709,270.739c0-14.739,4.655-29.479,13.964-41.891c33.358-44.218,71.37-48.873,115.588-44.218
	c0,0,0,0,0.776,0c29.479,3.879,56.63,18.618,76.8,40.339c28.703,31.806,56.63,91.539-12.412,172.994v79.903h-133.43v-34.133h-41.115
	c-17.067,0-31.806-13.964-31.806-31.806v-57.406h-44.994L239.709,270.739z"/>
<path style="fill:#193651;" d="M434.424,485.624h-133.43c-4.655,0-7.758-3.103-7.758-7.758v-26.376h-33.358
	c-21.721,0-39.564-17.842-39.564-39.564v-49.648h-37.236c-3.103,0-5.43-1.552-6.982-3.879c-1.552-2.327-1.552-5.43,0-7.758
	l55.079-82.23c0.776-15.515,6.206-31.03,15.515-43.442c25.6-33.358,55.855-48.873,96.97-48.873c7.758,0,16.291,0.776,26.376,1.552
	c31.806,3.879,60.509,18.618,82.23,42.667c27.152,30.255,62.061,93.867-10.861,180.752v76.8
	C442.182,481.745,438.303,485.624,434.424,485.624z M308.752,470.109h117.915v-72.145c0-1.552,0.776-3.879,1.552-4.655
	c64.388-75.249,42.667-129.552,13.188-162.909c-19.394-20.945-44.994-34.909-72.145-38.012c-9.309-0.776-17.842-1.552-24.824-1.552
	c-36.461,0-61.285,12.412-84.558,42.667c-7.758,10.861-12.412,23.273-12.412,36.461c0,1.552-0.776,3.103-1.552,4.655l-48.097,72.145
	h30.255c4.655,0,7.758,3.103,7.758,7.758v57.406c0,13.188,10.861,24.048,24.048,24.048h41.115c4.655,0,7.758,3.103,7.758,7.758
	V470.109z"/>
<path style="fill:#FFFFFF;" d="M203.248,82.23c0-11.636-3.879-24.048-10.861-33.358c-27.152-34.909-57.406-39.564-93.091-34.909l0,0
	c-23.273,3.103-45.77,14.739-61.285,32.582c-23.273,25.6-45.77,72.921,10.085,138.085v63.612h106.279v-27.152h33.358
	c13.964,0,24.824-11.636,24.824-25.6v-45.77h35.685L203.248,82.23z"/>
<path style="fill:#193651;" d="M153.6,256H47.321c-4.655,0-7.758-3.103-7.758-7.758v-60.509
	C-19.394,117.139,9.309,65.164,31.03,41.115C48.873,21.721,72.145,9.309,97.745,6.206c8.533-0.776,15.515-1.552,21.721-1.552
	c33.358,0,57.406,12.412,78.352,39.564c7.758,10.085,12.412,22.497,12.412,35.685l43.442,65.939c1.552,2.327,1.552,5.43,0,7.758
	c-1.552,2.327-3.879,3.879-6.982,3.879h-27.927v38.012c0,18.618-14.739,33.358-32.582,33.358h-25.6v19.394
	C161.358,252.121,158.255,256,153.6,256z M55.079,240.485h90.764v-19.394c0-4.655,3.103-7.758,7.758-7.758h33.358
	c9.309,0,17.067-7.758,17.067-17.842v-45.77c0-4.655,3.103-7.758,7.758-7.758h21.721l-37.236-55.855
	c-0.776-1.552-1.552-3.103-1.552-4.655c0-10.085-3.103-20.17-9.309-28.703c-17.842-23.273-38.012-33.358-66.715-33.358
	c-6.206,0-12.412,0.776-19.394,1.552C77.576,23.273,57.406,34.133,41.891,51.2c-23.273,25.6-40.339,69.042,10.085,128
	c1.552,1.552,1.552,3.103,1.552,4.655v56.63H55.079z"/>
<path style="fill:#2EA2DB;" d="M47.321,190.061v58.182H153.6v-27.152h33.358c13.964,0,24.824-11.636,24.824-25.6v-27.152"/>
<path style="fill:#193651;" d="M153.6,256H47.321c-4.655,0-7.758-3.103-7.758-7.758v-57.406c0-4.655,3.103-7.758,7.758-7.758
	s7.758,3.103,7.758,7.758v49.648h90.764v-19.394c0-4.655,3.103-7.758,7.758-7.758h33.358c9.309,0,17.067-7.758,17.067-17.842
	v-27.152c0-4.655,3.103-7.758,7.758-7.758c4.655,0,7.758,3.103,7.758,7.758v27.152c0,18.618-14.739,33.358-32.582,33.358h-25.6
	v19.394C161.358,252.121,158.255,256,153.6,256z"/>
<path style="fill:#FDBF5E;" d="M228.073,383.224v28.703c0,17.842,13.964,31.806,31.806,31.806h41.115v34.133h133.43V409.6"/>
<path style="fill:#193651;" d="M434.424,485.624h-133.43c-4.655,0-7.758-3.103-7.758-7.758v-26.376h-33.358
	c-21.721,0-39.564-17.842-39.564-39.564v-28.703c0-4.655,3.103-7.758,7.758-7.758c4.655,0,7.758,3.103,7.758,7.758v28.703
	c0,13.188,10.861,24.048,24.048,24.048h41.115c4.655,0,7.758,3.103,7.758,7.758v26.376h117.915V409.6
	c0-4.655,3.103-7.758,7.758-7.758s7.758,3.103,7.758,7.758v68.267C442.182,481.745,438.303,485.624,434.424,485.624z"/>
<path style="fill:#4FBF9F;" d="M412.703,305.648v-23.273h-12.412c-0.776-3.879-2.327-7.758-4.655-10.861l9.309-9.309l-17.067-15.515
	L378.57,256c-3.103-2.327-6.982-3.879-10.861-4.655v-12.412h-23.273v12.412c-3.879,0.776-7.758,2.327-10.861,4.655l-9.309-9.309
	l-16.291,16.291l9.309,9.309c-2.327,3.103-3.879,6.982-4.655,10.861h-12.412v23.273h12.412c0.776,3.879,2.327,7.758,4.655,10.861
	l-9.309,9.309l16.291,16.291l9.309-9.309c3.103,2.327,6.982,3.879,10.861,4.655v12.412h23.273V338.23
	c3.879-0.776,7.758-2.327,10.861-4.655l9.309,9.309l16.291-16.291l-8.533-9.309c2.327-3.103,3.879-6.982,4.655-10.861h12.412
	V305.648z"/>
<circle style="fill:#FFFFFF;" cx="356.073" cy="294.788" r="31.806"/>
<circle style="fill:#4FBF9F;" cx="356.073" cy="294.788" r="16.291"/>
<path style="fill:#F16051;" d="M134.982,107.055V94.642H128c-0.776-2.327-1.552-3.879-2.327-6.206l4.655-4.655l-8.533-8.533
	l-5.43,4.655c-1.552-0.776-3.879-2.327-6.206-2.327v-6.982H97.745v6.982c-2.327,0.776-3.879,1.552-6.206,2.327l-4.655-4.655
	l-9.309,8.533l4.655,4.655c-0.776,1.552-2.327,3.879-2.327,6.206h-6.982v12.412h6.982c0.776,2.327,1.552,3.879,2.327,6.206
	l-4.655,5.43l8.533,8.533l4.655-4.655c1.552,0.776,3.879,2.327,6.206,2.327v6.982h12.412v-6.982
	c2.327-0.776,3.879-1.552,6.206-2.327l4.655,4.655l8.533-8.533l-4.655-4.655c0.776-1.552,2.327-3.879,2.327-6.206h8.533V107.055z"/>
<circle style="fill:#FFFFFF;" cx="103.952" cy="100.848" r="15.515"/>
<circle style="fill:#F16051;" cx="103.952" cy="100.848" r="7.758"/>
<path style="fill:#193651;" d="M353.745,389.43v-15.515c4.655,0,9.309-0.776,13.964-1.552l3.103,15.515
	C364.606,388.655,359.176,389.43,353.745,389.43z M336.679,387.879c-5.43-0.776-10.861-2.327-16.291-4.655l5.43-14.739
	c4.655,1.552,9.309,3.103,13.964,3.879L336.679,387.879z M386.327,383.224l-5.43-14.739c4.655-1.552,8.533-3.879,12.412-6.206
	l7.758,13.188C397.188,379.345,391.758,381.673,386.327,383.224z M305.648,376.242c-4.655-3.103-9.309-6.206-13.964-10.085
	l10.085-11.636c3.879,3.103,7.758,6.206,11.636,8.533L305.648,376.242z M415.806,366.158l-10.085-11.636
	c1.552-1.552,3.103-2.327,4.655-3.879c2.327-2.327,3.879-3.879,5.43-6.206l12.412,10.085c-2.327,2.327-3.879,4.655-6.982,6.982
	C418.909,363.055,417.358,364.606,415.806,366.158z M280.048,355.297l-11.636-10.861l10.861-10.861l11.636,10.861L280.048,355.297z
	 M436.752,340.558l-13.964-7.758c2.327-3.879,3.879-8.533,5.43-13.188l14.739,4.655
	C441.406,330.473,439.855,335.127,436.752,340.558z M257.552,334.352l-11.636-10.861l10.861-11.636l11.636,10.861L257.552,334.352z
	 M235.055,313.406l-11.636-10.861l10.861-11.636l11.636,10.861L235.055,313.406z M447.612,308.752l-15.515-2.327
	c0.776-3.103,0.776-6.982,0.776-10.085c0-1.552,0-2.327,0-3.879l15.515-0.776c0,1.552,0,3.103,0,4.655
	C448.388,300.218,448.388,304.097,447.612,308.752z M212.558,291.685l-11.636-10.861l10.861-11.636l11.636,10.861L212.558,291.685z
	 M430.545,278.497c-0.776-4.655-2.327-9.309-4.655-13.188l13.964-6.206c2.327,5.43,3.879,10.861,5.43,16.291L430.545,278.497z
	 M190.061,270.739l-11.636-10.861l10.861-11.636l11.636,10.861L190.061,270.739z M418.909,252.897
	c-2.327-3.879-5.43-7.758-9.309-10.861l10.861-10.861c3.879,3.879,7.758,8.533,10.861,13.188L418.909,252.897z M166.788,249.018
	l-11.636-10.861l10.861-11.636l11.636,10.861L166.788,249.018z M399.515,232.727c-1.552-1.552-3.103-2.327-5.43-3.879l-6.982-4.655
	l7.758-13.188l7.758,4.655c2.327,1.552,3.879,3.103,6.206,3.879L399.515,232.727z M144.291,228.073l-10.861-10.861l10.861-11.636
	l11.636,10.861L144.291,228.073z M373.915,216.436l-13.188-7.758l7.758-13.188l13.188,7.758L373.915,216.436z M121.794,206.352
	l-11.636-10.861l10.861-11.636l11.636,10.861L121.794,206.352z M347.539,200.145l-13.188-7.758l7.758-13.188l13.188,7.758
	L347.539,200.145z M99.297,185.406l-11.636-10.861l10.861-11.636l11.636,10.861L99.297,185.406z M320.388,183.855l-13.188-7.758
	l7.758-13.188l13.188,7.758L320.388,183.855z M294.012,168.339l-13.188-7.758l7.758-13.188l13.188,7.758L294.012,168.339z
	 M76.8,163.685l-11.636-10.861l10.861-11.636l11.636,10.861L76.8,163.685z M267.636,152.048l-13.188-7.758l7.758-13.188
	l13.188,7.758L267.636,152.048z M55.855,143.515c-3.879-3.879-7.758-9.309-10.861-13.964l13.964-7.758
	c2.327,3.879,4.655,7.758,7.758,10.861L55.855,143.515z M241.261,135.758L228.073,128l7.758-13.188l13.188,7.758L241.261,135.758z
	 M214.885,119.467l-13.188-7.758l7.758-13.188l13.188,7.758L214.885,119.467z M38.788,113.261
	c-0.776-4.655-0.776-8.533-0.776-12.412c0-1.552,0-3.879,0-5.43l15.515,1.552c0,1.552,0,2.327,0,3.879c0,3.103,0,6.206,0.776,9.309
	L38.788,113.261z M187.733,103.952l-13.188-7.758l7.758-13.188l13.188,7.758L187.733,103.952z M161.358,87.661l-13.964-8.533
	l8.533-12.412l0.776,0.776l11.636,6.982L161.358,87.661z M56.63,83.782l-14.739-5.43c2.327-5.43,5.43-10.861,8.533-15.515
	l12.412,9.309C60.509,76.024,58.182,79.903,56.63,83.782z M134.982,70.594l-10.085-6.982c-0.776-0.776-1.552-1.552-2.327-1.552
	l7.758-13.188c0.776,0.776,2.327,1.552,3.103,2.327l10.085,6.982L134.982,70.594z M72.921,63.612l-9.309-13.188
	c4.655-3.103,10.085-6.206,15.515-7.758l4.655,14.739C79.903,58.958,76.024,60.509,72.921,63.612z M110.933,56.63
	c-3.879-0.776-7.758-1.552-11.636-1.552h-1.552L96.97,39.564h1.552c5.43,0,10.861,0.776,15.515,2.327L110.933,56.63z"/>
<g>
</g>
<g>
</g>
<g>
</g>
<g>
</g>
<g>
</g>
<g>
</g>
<g>
</g>
<g>
</g>
<g>
</g>
<g>
</g>
<g>
</g>
<g>
</g>
<g>
</g>
<g>
</g>
<g>
</g>
</svg>
